<?xml version="1.0" encoding="UTF-8" standalone="no"?>
<!-- Created with Inkscape (http://www.inkscape.org/) -->

<svg
   version="1.1"
   id="svg1"
   width="512"
   height="512"
   viewBox="0 0 512 512"
   sodipodi:docname="games.svg"
   inkscape:version="1.3 (0e150ed6c4, 2023-07-21)"
   xmlns:inkscape="http://www.inkscape.org/namespaces/inkscape"
   xmlns:sodipodi="http://sodipodi.sourceforge.net/DTD/sodipodi-0.dtd"
   xmlns="http://www.w3.org/2000/svg"
   xmlns:svg="http://www.w3.org/2000/svg">
  <defs
     id="defs1" />
  <sodipodi:namedview
     id="namedview1"
     pagecolor="#ffffff"
     bordercolor="#000000"
     borderopacity="0.25"
     inkscape:showpageshadow="2"
     inkscape:pageopacity="0.0"
     inkscape:pagecheckerboard="0"
     inkscape:deskcolor="#d1d1d1"
     showgrid="false"
     inkscape:zoom="1.5878906"
     inkscape:cx="255.68512"
     inkscape:cy="155.23739"
     inkscape:window-width="1920"
     inkscape:window-height="1009"
     inkscape:window-x="-8"
     inkscape:window-y="-8"
     inkscape:window-maximized="1"
     inkscape:current-layer="g1" />
  <g
     inkscape:groupmode="layer"
     inkscape:label="Image"
     id="g1">
    <path
       style="fill:#000000"
       d="m 69.4,508.6 -3.4,-3.4 0.02445,-20.85 c 0.01345,-11.4675 0.479396,-22.8234 1.035447,-25.23534 3.574903,-15.50658 17.532381,-29.42676 31.791914,-31.70695 4.858999,-0.77699 5.369169,-1.35637 6.962949,-7.90771 2.00764,-8.25256 8.63172,-20.55217 14.64735,-27.19725 5.90974,-6.52811 16.2289,-13.99797 23.17306,-16.77458 3.84773,-1.5385 4.46478,-2.36157 8.87709,-11.8408 21.83537,-46.91026 35.43434,-103.7817 35.47703,-148.36641 L 188,204.14192 l -5.43356,-1.57958 c -9.82105,-2.85506 -19.02969,-12.16628 -21.66367,-21.905 -1.63413,-6.04193 -0.65497,-17.3067 1.94528,-22.37954 3.00432,-5.86113 7.63563,-10.89091 12.83232,-13.93637 2.42333,-1.42017 4.27412,-2.86547 4.11285,-3.21178 -0.16127,-0.34631 -2.42339,-4.90465 -5.02694,-10.12965 -7.14912,-14.3474 -9.20866,-23.4982 -9.11521,-40.5 0.09,-16.366637 1.97235,-24.986272 8.38677,-38.403743 11.68028,-24.432412 32.92118,-41.975199 59.67838,-49.288176 11.20405,-3.0621653 33.39854,-3.0435119 44.78378,0.03764 26.9924,7.304866 48.42407,25.393328 60.14576,50.763384 5.8936,12.755919 7.61585,21.003867 7.70317,36.890895 0.0929,16.90402 -1.94716,25.94225 -9.14148,40.5 -2.58216,5.225 -4.82961,9.78334 -4.99436,10.12965 -0.16474,0.34631 1.68321,1.79161 4.10654,3.21178 5.19669,3.04546 9.828,8.07524 12.83232,13.93637 2.60025,5.07284 3.57941,16.33761 1.94528,22.37954 -2.66927,9.8692 -11.99299,19.194 -21.9609,21.96345 l -5.63633,1.56597 0.66494,16.15662 c 2.0262,49.23182 13.84494,97.20209 35.30959,143.31553 4.61633,9.91747 4.84771,10.20836 9.73568,12.2397 7.06131,2.93455 16.7072,10.06973 22.75669,16.83339 5.61623,6.27926 12.29095,18.84534 14.21834,26.768 1.59378,6.55134 2.10395,7.13072 6.96295,7.90771 14.1783,2.2672 28.23738,16.28871 31.79192,31.70695 0.55605,2.41194 1.022,13.76784 1.03544,25.23534 L 446,505.2 l -3.4,3.4 -3.4,3.4 H 256 72.8 Z m 356.57804,-30.85 c -0.0179,-11.62172 -0.35797,-14.98776 -1.8437,-18.25 -2.34267,-5.1438 -8.93233,-11.07244 -13.81356,-12.42788 -2.47409,-0.68701 -22.74911,-1.06293 -57.52373,-1.06654 -36.47191,-0.004 -54.46716,-0.35378 -56.08473,-1.09079 -6.0358,-2.7501 -7.16209,-11.26398 -2.11726,-16.00486 l 2.56444,-2.40993 45.02117,-0.27985 45.02116,-0.27984 -0.64724,-2.72016 c -3.51936,-14.79081 -19.39348,-29.21991 -35.44108,-32.21487 -7.30128,-1.36264 -182.92574,-1.36264 -190.22702,0 -16.06278,2.9978 -31.91934,17.42124 -35.44857,32.24472 l -0.65474,2.75 h 44.20412 c 39.44712,0 44.50749,0.17921 47.0232,1.66527 6.64911,3.92773 6.36497,14.0201 -0.48256,17.14004 -1.92839,0.87864 -16.82903,1.19617 -56.32499,1.20027 -34.77462,0.004 -55.04964,0.37953 -57.52373,1.06654 -4.881227,1.35544 -11.470894,7.28408 -13.813558,12.42788 -1.485736,3.26224 -1.825789,6.62828 -1.8437,18.25 L 86,492 H 256 426 Z M 251.4202,444.85545 c -1.14389,-0.55505 -2.87553,-2.35625 -3.84809,-4.00267 -4.87731,-8.25663 5.00572,-18.16881 13.25609,-13.29519 10.99692,6.49604 2.08807,22.87614 -9.408,17.29786 z M 339.69259,368.75 c -0.28677,-0.6875 -2.62273,-6.2 -5.19104,-12.25 C 316.49664,314.08693 304,255.84302 304,214.33939 V 204 h -47.84757 -47.84756 l -0.59574,16.75 c -1.57641,44.32332 -12.79104,94.71561 -30.21068,135.75 -2.56831,6.05 -4.90427,11.5625 -5.19104,12.25 -0.4147,0.99423 16.71,1.25 83.69259,1.25 66.98259,0 84.10729,-0.25577 83.69259,-1.25 z M 325.98896,182.50571 C 330.18856,180.33401 332,177.1681 332,172 c 0,-5.1681 -1.81144,-8.33401 -6.01104,-10.50571 -4.34255,-2.24562 -135.63537,-2.24562 -139.97792,0 -4.15427,2.14826 -6.01104,5.32798 -6.01104,10.29396 0,5.39268 1.23265,7.77306 5.31382,10.26152 3.07139,1.87276 5.61081,1.94289 70.48584,1.94649 57.75684,0.003 67.7094,-0.20814 70.1893,-1.49055 z M 312.46035,133.75 C 341.85414,94.29918 324.54536,39.637896 277.5,23.344937 c -7.1946,-2.491667 -9.35911,-2.77188 -21.5,-2.783359 -12.57904,-0.01189 -14.09768,0.19942 -22.26121,3.097565 -11.72049,4.160903 -18.64793,8.447978 -27.21297,16.840857 -8.29038,8.123748 -14.28349,17.702623 -18.1441,29 -2.384,6.97633 -2.74187,9.599484 -2.79679,20.5 -0.0914,18.14797 3.79256,30.32224 14.01022,43.91474 L 204.16953,140 h 51.81705 51.81705 z"
       id="path1" />
  </g>
</svg>
